<?xml version="1.0" standalone="no"?>
<!DOCTYPE svg PUBLIC "-//W3C//DTD SVG 20010904//EN"
 "http://www.w3.org/TR/2001/REC-SVG-20010904/DTD/svg10.dtd">
<svg version="1.0" xmlns="http://www.w3.org/2000/svg"
 width="85.000000pt" height="85.000000pt" viewBox="0 0 85.000000 85.000000"
 preserveAspectRatio="xMidYMid meet">

<g transform="translate(0.000000,85.000000) scale(0.100000,-0.100000)"
fill="#000000" stroke="none">
<path d="M104 829 c-41 -12 -91 -69 -99 -112 -4 -18 -5 -123 -3 -233 3 -221 7
-235 71 -274 28 -18 51 -20 187 -20 86 0 160 -4 165 -9 6 -5 68 -46 139 -91
l129 -82 -7 91 -7 91 31 0 c42 0 84 23 112 62 22 32 23 38 23 260 0 213 -1
228 -21 254 -11 15 -33 37 -48 48 -26 20 -42 21 -334 23 -169 1 -321 -2 -338
-8z m379 -71 c18 -24 18 -30 7 -57 -28 -67 -130 -51 -130 21 0 66 83 91 123
36z m7 -153 c20 -21 22 -31 18 -83 -3 -32 -14 -83 -23 -114 -23 -73 -16 -92
31 -83 33 6 35 5 32 -17 -4 -28 -46 -50 -110 -56 -42 -4 -50 -1 -78 26 -35 36
-37 55 -10 142 11 36 20 82 20 104 0 39 0 39 -35 33 -29 -5 -35 -3 -35 12 0
33 55 59 126 60 31 1 46 -5 64 -24z"/>
</g>
</svg>
